<?xml version="1.0" encoding="UTF-8" standalone="no"?>
<!DOCTYPE svg PUBLIC "-//W3C//DTD SVG 1.1//EN"
 "http://www.w3.org/Graphics/SVG/1.1/DTD/svg11.dtd">
<!-- Generated by graphviz version 2.38.0 (20140413.2041)
 -->
<!-- Title: %3 Pages: 1 -->
<svg width="629pt" height="578pt"
 viewBox="0.00 0.00 629.32 577.55" xmlns="http://www.w3.org/2000/svg" xmlns:xlink="http://www.w3.org/1999/xlink">
<g id="graph0" class="graph" transform="scale(1 1) rotate(0) translate(4 573.553)">
<title>%3</title>
<polygon fill="white" stroke="none" points="-4,4 -4,-573.553 625.321,-573.553 625.321,4 -4,4"/>
<!-- Camera -->
<g id="node1" class="node"><title>Camera</title>
<ellipse fill="none" stroke="black" cx="219.56" cy="-551.553" rx="38.1938" ry="18"/>
<text text-anchor="middle" x="219.56" y="-547.853" font-family="Times,serif" font-size="14.00">Camera</text>
</g>
<!-- Video Generator -->
<g id="node2" class="node"><title>Video Generator</title>
<ellipse fill="none" stroke="black" cx="275.56" cy="-449.47" rx="104.804" ry="48.1667"/>
<text text-anchor="middle" x="275.56" y="-468.27" font-family="Times,serif" font-size="14.00">Video Generator</text>
<text text-anchor="middle" x="275.56" y="-453.27" font-family="Times,serif" font-size="14.00">jpeg, bayer, yuv2 to rgb</text>
<text text-anchor="middle" x="275.56" y="-438.27" font-family="Times,serif" font-size="14.00"> mjpeg generation</text>
<text text-anchor="middle" x="275.56" y="-423.27" font-family="Times,serif" font-size="14.00">live stretch</text>
</g>
<!-- Camera&#45;&gt;Video Generator -->
<g id="edge1" class="edge"><title>Camera&#45;&gt;Video Generator</title>
<path fill="none" stroke="black" d="M228.807,-534.027C233.321,-525.959 239.039,-515.74 244.914,-505.241"/>
<polygon fill="black" stroke="black" points="248.034,-506.833 249.862,-496.397 241.925,-503.415 248.034,-506.833"/>
</g>
<!-- Data Save -->
<g id="node4" class="node"><title>Data Save</title>
<ellipse fill="none" stroke="black" cx="85.5599" cy="-206.35" rx="85.6199" ry="26.7407"/>
<text text-anchor="middle" x="85.5599" y="-210.15" font-family="Times,serif" font-size="14.00">Data Save</text>
<text text-anchor="middle" x="85.5599" y="-195.15" font-family="Times,serif" font-size="14.00">for post&#45;processing</text>
</g>
<!-- Video Generator&#45;&gt;Data Save -->
<g id="edge3" class="edge"><title>Video Generator&#45;&gt;Data Save</title>
<path fill="none" stroke="black" d="M177.793,-432.031C139.223,-420.239 98.6766,-400.022 75.5599,-365.387 51.3207,-329.07 61.0064,-276.987 71.8526,-242.679"/>
<polygon fill="black" stroke="black" points="75.2134,-243.665 75.067,-233.071 68.5751,-241.444 75.2134,-243.665"/>
</g>
<!-- Live Video Stream -->
<g id="node5" class="node"><title>Live Video Stream</title>
<ellipse fill="none" stroke="black" cx="163.56" cy="-317.304" rx="78.7863" ry="18"/>
<text text-anchor="middle" x="163.56" y="-313.604" font-family="Times,serif" font-size="14.00">Live Video Stream</text>
</g>
<!-- Video Generator&#45;&gt;Live Video Stream -->
<g id="edge4" class="edge"><title>Video Generator&#45;&gt;Live Video Stream</title>
<path fill="none" stroke="black" d="M237.642,-404.402C220.081,-383.992 199.863,-360.495 184.989,-343.208"/>
<polygon fill="black" stroke="black" points="187.327,-340.56 178.152,-335.262 182.021,-345.125 187.327,-340.56"/>
</g>
<!-- Plate Solver -->
<g id="node6" class="node"><title>Plate Solver</title>
<ellipse fill="none" stroke="black" cx="555.56" cy="-26.8701" rx="65.5227" ry="26.7407"/>
<text text-anchor="middle" x="555.56" y="-30.6701" font-family="Times,serif" font-size="14.00">ASTAP</text>
<text text-anchor="middle" x="555.56" y="-15.6701" font-family="Times,serif" font-size="14.00">image storage</text>
</g>
<!-- Video Generator&#45;&gt;Plate Solver -->
<g id="edge5" class="edge"><title>Video Generator&#45;&gt;Plate Solver</title>
<path fill="none" stroke="black" d="M378.488,-440.669C431.051,-431.029 491.214,-410.146 526.56,-365.387 596.621,-276.667 577.821,-130.895 564.104,-63.7634"/>
<polygon fill="black" stroke="black" points="567.464,-62.7383 561.96,-53.6852 560.617,-64.1946 567.464,-62.7383"/>
</g>
<!-- PreProcessor -->
<g id="node7" class="node"><title>PreProcessor</title>
<ellipse fill="none" stroke="black" cx="388.56" cy="-317.304" rx="128.887" ry="48.1667"/>
<text text-anchor="middle" x="388.56" y="-336.104" font-family="Times,serif" font-size="14.00">Pre&#45;Processor</text>
<text text-anchor="middle" x="388.56" y="-321.104" font-family="Times,serif" font-size="14.00">flats, darks,</text>
<text text-anchor="middle" x="388.56" y="-306.104" font-family="Times,serif" font-size="14.00">field rotation, float conversion</text>
<text text-anchor="middle" x="388.56" y="-291.104" font-family="Times,serif" font-size="14.00">gradient removal</text>
</g>
<!-- Video Generator&#45;&gt;PreProcessor -->
<g id="edge6" class="edge"><title>Video Generator&#45;&gt;PreProcessor</title>
<path fill="none" stroke="black" d="M313.817,-404.402C323.181,-393.615 333.294,-381.966 342.964,-370.827"/>
<polygon fill="black" stroke="black" points="345.66,-373.059 349.573,-363.213 340.374,-368.47 345.66,-373.059"/>
</g>
<!-- User Control -->
<g id="node3" class="node"><title>User Control</title>
<ellipse fill="none" stroke="black" cx="332.56" cy="-551.553" rx="56.59" ry="18"/>
<text text-anchor="middle" x="332.56" y="-547.853" font-family="Times,serif" font-size="14.00">User Control</text>
</g>
<!-- User Control&#45;&gt;Video Generator -->
<g id="edge2" class="edge"><title>User Control&#45;&gt;Video Generator</title>
<path fill="none" stroke="black" d="M322.891,-533.576C318.325,-525.559 312.592,-515.493 306.707,-505.16"/>
<polygon fill="black" stroke="black" points="309.741,-503.414 301.75,-496.457 303.658,-506.878 309.741,-503.414"/>
</g>
<!-- Stats and Errors -->
<g id="node9" class="node"><title>Stats and Errors</title>
<ellipse fill="none" stroke="black" cx="186.56" cy="-26.8701" rx="86.0347" ry="26.7407"/>
<text text-anchor="middle" x="186.56" y="-30.6701" font-family="Times,serif" font-size="14.00">Notify User</text>
<text text-anchor="middle" x="186.56" y="-15.6701" font-family="Times,serif" font-size="14.00">statistics and errors</text>
</g>
<!-- Data Save&#45;&gt;Stats and Errors -->
<g id="edge13" class="edge"><title>Data Save&#45;&gt;Stats and Errors</title>
<path fill="none" stroke="black" d="M100.246,-179.543C117.875,-148.566 147.498,-96.5101 167.039,-62.1734"/>
<polygon fill="black" stroke="black" points="170.116,-63.8428 172.02,-53.4204 164.032,-60.3805 170.116,-63.8428"/>
</g>
<!-- Stacker -->
<g id="node8" class="node"><title>Stacker</title>
<ellipse fill="none" stroke="black" cx="384.56" cy="-206.35" rx="92.7622" ry="26.7407"/>
<text text-anchor="middle" x="384.56" y="-210.15" font-family="Times,serif" font-size="14.00">Stacker</text>
<text text-anchor="middle" x="384.56" y="-195.15" font-family="Times,serif" font-size="14.00">registration, stacking</text>
</g>
<!-- PreProcessor&#45;&gt;Stacker -->
<g id="edge7" class="edge"><title>PreProcessor&#45;&gt;Stacker</title>
<path fill="none" stroke="black" d="M386.829,-269.149C386.511,-260.495 386.184,-251.59 385.881,-243.33"/>
<polygon fill="black" stroke="black" points="389.376,-243.142 385.512,-233.278 382.381,-243.399 389.376,-243.142"/>
</g>
<!-- PreProcessor&#45;&gt;Stats and Errors -->
<g id="edge8" class="edge"><title>PreProcessor&#45;&gt;Stats and Errors</title>
<path fill="none" stroke="black" d="M326.136,-275.224C310.582,-262.995 294.855,-248.687 282.56,-233.22 240.642,-180.49 211.861,-106.47 197.39,-63.2034"/>
<polygon fill="black" stroke="black" points="200.708,-62.0905 194.269,-53.677 194.056,-64.2697 200.708,-62.0905"/>
</g>
<!-- PostProcessor -->
<g id="node10" class="node"><title>PostProcessor</title>
<ellipse fill="none" stroke="black" cx="382.56" cy="-116.61" rx="79.3924" ry="26.7407"/>
<text text-anchor="middle" x="382.56" y="-120.41" font-family="Times,serif" font-size="14.00">PostProcessor</text>
<text text-anchor="middle" x="382.56" y="-105.41" font-family="Times,serif" font-size="14.00">stretching, mjpeg</text>
</g>
<!-- Stacker&#45;&gt;PostProcessor -->
<g id="edge9" class="edge"><title>Stacker&#45;&gt;PostProcessor</title>
<path fill="none" stroke="black" d="M383.96,-179.025C383.778,-171.059 383.576,-162.168 383.382,-153.679"/>
<polygon fill="black" stroke="black" points="386.88,-153.532 383.153,-143.614 379.882,-153.691 386.88,-153.532"/>
</g>
<!-- PostProcessor&#45;&gt;Plate Solver -->
<g id="edge10" class="edge"><title>PostProcessor&#45;&gt;Plate Solver</title>
<path fill="none" stroke="black" d="M425.324,-93.9216C449.831,-81.4926 480.693,-65.8401 506.223,-52.8922"/>
<polygon fill="black" stroke="black" points="508.03,-55.9001 515.366,-48.2553 504.864,-49.6571 508.03,-55.9001"/>
</g>
<!-- PostProcessor&#45;&gt;Stats and Errors -->
<g id="edge11" class="edge"><title>PostProcessor&#45;&gt;Stats and Errors</title>
<path fill="none" stroke="black" d="M336.111,-94.817C308.429,-82.425 273.075,-66.5988 243.692,-53.4456"/>
<polygon fill="black" stroke="black" points="244.937,-50.1681 234.38,-49.2767 242.077,-56.5571 244.937,-50.1681"/>
</g>
<!-- Stacked Video Stream -->
<g id="node11" class="node"><title>Stacked Video Stream</title>
<ellipse fill="none" stroke="black" cx="381.56" cy="-26.8701" rx="90.1842" ry="18"/>
<text text-anchor="middle" x="381.56" y="-23.1701" font-family="Times,serif" font-size="14.00">Stacked Video Stream</text>
</g>
<!-- PostProcessor&#45;&gt;Stacked Video Stream -->
<g id="edge12" class="edge"><title>PostProcessor&#45;&gt;Stacked Video Stream</title>
<path fill="none" stroke="black" d="M382.26,-89.2852C382.137,-78.5336 381.996,-66.0986 381.872,-55.2416"/>
<polygon fill="black" stroke="black" points="385.369,-54.9908 381.756,-45.0314 378.37,-55.0707 385.369,-54.9908"/>
</g>
</g>
</svg>
