<?xml version="1.0" encoding="UTF-8" standalone="no"?>
<!DOCTYPE svg PUBLIC "-//W3C//DTD SVG 1.1//EN"
 "http://www.w3.org/Graphics/SVG/1.1/DTD/svg11.dtd">
<!-- Generated by graphviz version 2.43.0 (0)
 -->
<!-- Title: %3 Pages: 1 -->
<svg width="865pt" height="578pt"
 viewBox="0.00 0.00 865.04 577.55" xmlns="http://www.w3.org/2000/svg" xmlns:xlink="http://www.w3.org/1999/xlink">
<g id="graph0" class="graph" transform="scale(1 1) rotate(0) translate(4 573.55)">
<title>%3</title>
<polygon fill="white" stroke="transparent" points="-4,4 -4,-573.55 861.04,-573.55 861.04,4 -4,4"/>
<!-- Camera -->
<g id="node1" class="node">
<title>Camera</title>
<ellipse fill="none" stroke="black" cx="447.15" cy="-551.55" rx="46.59" ry="18"/>
<text text-anchor="middle" x="447.15" y="-547.85" font-family="Times,serif" font-size="14.00">Camera</text>
</g>
<!-- Video Generator -->
<g id="node2" class="node">
<title>Video Generator</title>
<ellipse fill="none" stroke="black" cx="515.15" cy="-449.47" rx="132.46" ry="48.17"/>
<text text-anchor="middle" x="515.15" y="-468.27" font-family="Times,serif" font-size="14.00">Video Generator</text>
<text text-anchor="middle" x="515.15" y="-453.27" font-family="Times,serif" font-size="14.00">jpeg, bayer, yuv2 to rgb</text>
<text text-anchor="middle" x="515.15" y="-438.27" font-family="Times,serif" font-size="14.00"> mjpeg generation</text>
<text text-anchor="middle" x="515.15" y="-423.27" font-family="Times,serif" font-size="14.00">live stretch</text>
</g>
<!-- Camera&#45;&gt;Video Generator -->
<g id="edge1" class="edge">
<title>Camera&#45;&gt;Video Generator</title>
<path fill="none" stroke="black" d="M458.37,-534.03C463.91,-525.88 470.94,-515.54 478.15,-504.93"/>
<polygon fill="black" stroke="black" points="481.22,-506.64 483.94,-496.4 475.43,-502.7 481.22,-506.64"/>
</g>
<!-- Data Save -->
<g id="node4" class="node">
<title>Data Save</title>
<ellipse fill="none" stroke="black" cx="748.15" cy="-206.35" rx="108.79" ry="26.74"/>
<text text-anchor="middle" x="748.15" y="-210.15" font-family="Times,serif" font-size="14.00">Data Save</text>
<text text-anchor="middle" x="748.15" y="-195.15" font-family="Times,serif" font-size="14.00">for post&#45;processing</text>
</g>
<!-- Video Generator&#45;&gt;Data Save -->
<g id="edge3" class="edge">
<title>Video Generator&#45;&gt;Data Save</title>
<path fill="none" stroke="black" d="M580.44,-407.65C596.48,-395.47 612.63,-381.12 625.15,-365.39 654.3,-328.75 639.2,-306.02 668.15,-269.22 677.32,-257.56 689.15,-246.86 700.89,-237.75"/>
<polygon fill="black" stroke="black" points="703.06,-240.5 708.97,-231.7 698.86,-234.89 703.06,-240.5"/>
</g>
<!-- Live Video Stream -->
<g id="node5" class="node">
<title>Live Video Stream</title>
<ellipse fill="none" stroke="black" cx="142.15" cy="-317.3" rx="96.38" ry="18"/>
<text text-anchor="middle" x="142.15" y="-313.6" font-family="Times,serif" font-size="14.00">Live Video Stream</text>
</g>
<!-- Video Generator&#45;&gt;Live Video Stream -->
<g id="edge4" class="edge">
<title>Video Generator&#45;&gt;Live Video Stream</title>
<path fill="none" stroke="black" d="M411.82,-419.37C361.9,-404.54 301.42,-385.43 248.15,-365.39 227.02,-357.44 204.08,-347.43 184.96,-338.68"/>
<polygon fill="black" stroke="black" points="186.17,-335.39 175.62,-334.37 183.24,-341.74 186.17,-335.39"/>
</g>
<!-- Plate Solver -->
<g id="node6" class="node">
<title>Plate Solver</title>
<ellipse fill="none" stroke="black" cx="84.15" cy="-26.87" rx="84.29" ry="26.74"/>
<text text-anchor="middle" x="84.15" y="-30.67" font-family="Times,serif" font-size="14.00">ASTAP</text>
<text text-anchor="middle" x="84.15" y="-15.67" font-family="Times,serif" font-size="14.00">image storage</text>
</g>
<!-- Video Generator&#45;&gt;Plate Solver -->
<g id="edge5" class="edge">
<title>Video Generator&#45;&gt;Plate Solver</title>
<path fill="none" stroke="black" d="M383.68,-444.02C257.77,-436.67 80.69,-417.15 37.15,-365.39 -36.69,-277.61 28.27,-129.2 64.14,-62.34"/>
<polygon fill="black" stroke="black" points="67.27,-63.92 69,-53.46 61.13,-60.56 67.27,-63.92"/>
</g>
<!-- PreProcessor -->
<g id="node7" class="node">
<title>PreProcessor</title>
<ellipse fill="none" stroke="black" cx="420.15" cy="-317.3" rx="163.18" ry="48.17"/>
<text text-anchor="middle" x="420.15" y="-336.1" font-family="Times,serif" font-size="14.00">Pre&#45;Processor</text>
<text text-anchor="middle" x="420.15" y="-321.1" font-family="Times,serif" font-size="14.00">flats, darks,</text>
<text text-anchor="middle" x="420.15" y="-306.1" font-family="Times,serif" font-size="14.00">field rotation, float conversion</text>
<text text-anchor="middle" x="420.15" y="-291.1" font-family="Times,serif" font-size="14.00">gradient removal</text>
</g>
<!-- Video Generator&#45;&gt;PreProcessor -->
<g id="edge6" class="edge">
<title>Video Generator&#45;&gt;PreProcessor</title>
<path fill="none" stroke="black" d="M481.65,-402.58C474.64,-392.97 467.18,-382.75 459.97,-372.87"/>
<polygon fill="black" stroke="black" points="462.7,-370.67 453.98,-364.66 457.05,-374.8 462.7,-370.67"/>
</g>
<!-- Stats and Errors -->
<g id="node8" class="node">
<title>Stats and Errors</title>
<ellipse fill="none" stroke="black" cx="611.15" cy="-26.87" rx="113.69" ry="26.74"/>
<text text-anchor="middle" x="611.15" y="-30.67" font-family="Times,serif" font-size="14.00">Notify User</text>
<text text-anchor="middle" x="611.15" y="-15.67" font-family="Times,serif" font-size="14.00">statistics and errors</text>
</g>
<!-- Video Generator&#45;&gt;Stats and Errors -->
<g id="edge7" class="edge">
<title>Video Generator&#45;&gt;Stats and Errors</title>
<path fill="none" stroke="black" d="M565.96,-404.75C576.41,-393.07 586.07,-379.69 592.15,-365.39 635.63,-263.05 625.16,-127.33 616.78,-63.69"/>
<polygon fill="black" stroke="black" points="620.24,-63.18 615.41,-53.75 613.31,-64.13 620.24,-63.18"/>
</g>
<!-- Dither -->
<g id="node9" class="node">
<title>Dither</title>
<ellipse fill="none" stroke="black" cx="748.15" cy="-317.3" rx="71.49" ry="18"/>
<text text-anchor="middle" x="748.15" y="-313.6" font-family="Times,serif" font-size="14.00">Mount Guide</text>
</g>
<!-- Video Generator&#45;&gt;Dither -->
<g id="edge8" class="edge">
<title>Video Generator&#45;&gt;Dither</title>
<path fill="none" stroke="black" d="M586.32,-408.71C627.54,-385.68 677.74,-357.64 711.19,-338.95"/>
<polygon fill="black" stroke="black" points="713.14,-341.87 720.16,-333.94 709.72,-335.76 713.14,-341.87"/>
</g>
<!-- User Control -->
<g id="node3" class="node">
<title>User Control</title>
<ellipse fill="none" stroke="black" cx="583.15" cy="-551.55" rx="70.69" ry="18"/>
<text text-anchor="middle" x="583.15" y="-547.85" font-family="Times,serif" font-size="14.00">User Control</text>
</g>
<!-- User Control&#45;&gt;Video Generator -->
<g id="edge2" class="edge">
<title>User Control&#45;&gt;Video Generator</title>
<path fill="none" stroke="black" d="M571.61,-533.58C566.11,-525.48 559.19,-515.29 552.09,-504.85"/>
<polygon fill="black" stroke="black" points="554.91,-502.76 546.39,-496.46 549.12,-506.69 554.91,-502.76"/>
</g>
<!-- Data Save&#45;&gt;Stats and Errors -->
<g id="edge15" class="edge">
<title>Data Save&#45;&gt;Stats and Errors</title>
<path fill="none" stroke="black" d="M728.22,-179.54C704.21,-148.43 663.79,-96.07 637.29,-61.74"/>
<polygon fill="black" stroke="black" points="639.75,-59.2 630.87,-53.42 634.21,-63.48 639.75,-59.2"/>
</g>
<!-- PreProcessor&#45;&gt;Stats and Errors -->
<g id="edge9" class="edge">
<title>PreProcessor&#45;&gt;Stats and Errors</title>
<path fill="none" stroke="black" d="M479.09,-272.24C492.35,-260.54 505.61,-247.22 516.15,-233.22 556.39,-179.76 585.14,-106.53 599.87,-63.5"/>
<polygon fill="black" stroke="black" points="603.28,-64.36 603.15,-53.76 596.64,-62.13 603.28,-64.36"/>
</g>
<!-- Stacker -->
<g id="node10" class="node">
<title>Stacker</title>
<ellipse fill="none" stroke="black" cx="387.15" cy="-206.35" rx="120.42" ry="26.74"/>
<text text-anchor="middle" x="387.15" y="-210.15" font-family="Times,serif" font-size="14.00">Stacker</text>
<text text-anchor="middle" x="387.15" y="-195.15" font-family="Times,serif" font-size="14.00">registration, stacking</text>
</g>
<!-- PreProcessor&#45;&gt;Stacker -->
<g id="edge10" class="edge">
<title>PreProcessor&#45;&gt;Stacker</title>
<path fill="none" stroke="black" d="M405.86,-269.15C403.21,-260.4 400.49,-251.39 397.96,-243.05"/>
<polygon fill="black" stroke="black" points="401.25,-241.83 395,-233.28 394.55,-243.86 401.25,-241.83"/>
</g>
<!-- PostProcessor -->
<g id="node11" class="node">
<title>PostProcessor</title>
<ellipse fill="none" stroke="black" cx="372.15" cy="-116.61" rx="101.23" ry="26.74"/>
<text text-anchor="middle" x="372.15" y="-120.41" font-family="Times,serif" font-size="14.00">PostProcessor</text>
<text text-anchor="middle" x="372.15" y="-105.41" font-family="Times,serif" font-size="14.00">stretching, mjpeg</text>
</g>
<!-- Stacker&#45;&gt;PostProcessor -->
<g id="edge11" class="edge">
<title>Stacker&#45;&gt;PostProcessor</title>
<path fill="none" stroke="black" d="M382.65,-179.03C381.28,-171.06 379.76,-162.17 378.31,-153.68"/>
<polygon fill="black" stroke="black" points="381.73,-152.88 376.59,-143.61 374.83,-154.06 381.73,-152.88"/>
</g>
<!-- PostProcessor&#45;&gt;Plate Solver -->
<g id="edge12" class="edge">
<title>PostProcessor&#45;&gt;Plate Solver</title>
<path fill="none" stroke="black" d="M307.51,-95.92C261.68,-81.96 200.26,-63.24 153.42,-48.97"/>
<polygon fill="black" stroke="black" points="154.24,-45.57 143.66,-46 152.2,-52.26 154.24,-45.57"/>
</g>
<!-- PostProcessor&#45;&gt;Stats and Errors -->
<g id="edge13" class="edge">
<title>PostProcessor&#45;&gt;Stats and Errors</title>
<path fill="none" stroke="black" d="M429.7,-94.48C463.28,-82.15 505.89,-66.51 541.37,-53.48"/>
<polygon fill="black" stroke="black" points="543,-56.62 551.18,-49.88 540.59,-50.05 543,-56.62"/>
</g>
<!-- Stacked Video Stream -->
<g id="node12" class="node">
<title>Stacked Video Stream</title>
<ellipse fill="none" stroke="black" cx="365.15" cy="-26.87" rx="113.98" ry="18"/>
<text text-anchor="middle" x="365.15" y="-23.17" font-family="Times,serif" font-size="14.00">Stacked Video Stream</text>
</g>
<!-- PostProcessor&#45;&gt;Stacked Video Stream -->
<g id="edge14" class="edge">
<title>PostProcessor&#45;&gt;Stacked Video Stream</title>
<path fill="none" stroke="black" d="M370.05,-89.29C369.19,-78.53 368.2,-66.1 367.33,-55.24"/>
<polygon fill="black" stroke="black" points="370.8,-54.72 366.51,-45.03 363.82,-55.28 370.8,-54.72"/>
</g>
</g>
</svg>
